<svg xmlns="http://www.w3.org/2000/svg" viewBox="0 0 200 200" width="200" height="200">
  <!-- Cross -->
  <rect x="85" y="20" width="30" height="160" fill="#8B4513" rx="2"/>
  <rect x="40" y="60" width="120" height="30" fill="#8B4513" rx="2"/>
  
  <!-- Cross border/outline -->
  <rect x="85" y="20" width="30" height="160" fill="none" stroke="#5D3A1A" stroke-width="2" rx="2"/>
  <rect x="40" y="60" width="120" height="30" fill="none" stroke="#5D3A1A" stroke-width="2" rx="2"/>
  
  <!-- Rose center -->
  <circle cx="100" cy="75" r="18" fill="#C41E3A"/>
  
  <!-- Rose petals - outer layer -->
  <ellipse cx="100" cy="55" rx="12" ry="10" fill="#E32636"/>
  <ellipse cx="118" cy="68" rx="10" ry="12" fill="#DC143C"/>
  <ellipse cx="115" cy="88" rx="12" ry="10" fill="#E32636"/>
  <ellipse cx="85" cy="88" rx="12" ry="10" fill="#DC143C"/>
  <ellipse cx="82" cy="68" rx="10" ry="12" fill="#E32636"/>
  
  <!-- Rose petals - inner layer -->
  <ellipse cx="100" cy="62" rx="8" ry="7" fill="#8B0000"/>
  <ellipse cx="110" cy="72" rx="7" ry="8" fill="#A52A2A"/>
  <ellipse cx="107" cy="82" rx="8" ry="6" fill="#8B0000"/>
  <ellipse cx="93" cy="82" rx="8" ry="6" fill="#A52A2A"/>
  <ellipse cx="90" cy="72" rx="7" ry="8" fill="#8B0000"/>
  
  <!-- Rose center detail -->
  <circle cx="100" cy="75" r="6" fill="#800020"/>
  <path d="M97 72 Q100 68 103 72 Q106 76 100 80 Q94 76 97 72" fill="#4A0010"/>
  
  <!-- Rose leaves -->
  <ellipse cx="130" cy="90" rx="15" ry="8" fill="#228B22" transform="rotate(30 130 90)"/>
  <ellipse cx="70" cy="90" rx="15" ry="8" fill="#228B22" transform="rotate(-30 70 90)"/>
  <path d="M130 90 L118 85" stroke="#006400" stroke-width="1" fill="none"/>
  <path d="M70 90 L82 85" stroke="#006400" stroke-width="1" fill="none"/>
  
  <!-- Small leaf veins -->
  <path d="M125 88 L130 90 L125 92" stroke="#006400" stroke-width="0.5" fill="none"/>
  <path d="M75 88 L70 90 L75 92" stroke="#006400" stroke-width="0.5" fill="none"/>
  
  <!-- Text EMAUS -->
  <text x="100" y="195" font-family="Georgia, serif" font-size="18" font-weight="bold" fill="#8B4513" text-anchor="middle">EMAUS</text>
</svg>